{"asset":{"version":"2.0","generator":"babylon.js glTF exporter for 3dsmax 2020 v20210308.2"},"scene":0,"scenes":[{"nodes":[0,1,2,3,4,5,6,7,8,9,10]}],"nodes":[{"mesh":0,"name":"Apartments_base","extras":{"animAuto":true,"animLoop":"Repeat","animRepeatInfinite":true,"animRepeatCount":1.0,"animOffset":0.0,"animUseCustomRange":false,"animCustomRangeFrom":0,"animCustomRangeTo":100,"renderOrder":0,"frustumCulling":true}},{"mesh":1,"translation":[-0.00244773855,0.0,0.0],"name":"baseBoard","extras":{"renderOrder":0,"frustumCulling":true,"animAuto":true,"animLoop":"Repeat","animRepeatInfinite":true,"animRepeatCount":1.0,"animOffset":0.0,"animUseCustomRange":false,"animCustomRangeFrom":0,"animCustomRangeTo":100}},{"mesh":2,"name":"doorjamb","extras":{"animAuto":true,"animLoop":"Repeat","animRepeatInfinite":true,"animRepeatCount":1.0,"animOffset":0.0,"animUseCustomRange":false,"animCustomRangeFrom":0,"animCustomRangeTo":100,"renderOrder":0,"frustumCulling":true}},{"translation":[-0.4589523,1.16555572,0.0],"name":"CoronaCamera001.Target"},{"translation":[0.134807959,1.00000007E-05,-6.11841059],"name":"CoronaSun001.Target"},{"mesh":3,"translation":[-1.97407222,10.15075,-39.52689],"rotation":[0.7071068,0.0,0.0,0.7071067],"scale":[2.69676757,2.69676757,2.69676757],"name":"backDrop","extras":{"animAuto":true,"animLoop":"Repeat","animRepeatInfinite":true,"animRepeatCount":1.0,"animOffset":0.0,"animUseCustomRange":false,"animCustomRangeFrom":0,"animCustomRangeTo":100,"renderOrder":0,"frustumCulling":true}},{"mesh":4,"name":"apartment_floor","extras":{"animAuto":true,"animLoop":"Repeat","animRepeatInfinite":true,"animRepeatCount":1.0,"animOffset":0.0,"animUseCustomRange":false,"animCustomRangeFrom":0,"animCustomRangeTo":100,"renderOrder":0,"frustumCulling":true}},{"mesh":5,"name":"apartment_roof","extras":{"animAuto":true,"animLoop":"Repeat","animRepeatInfinite":true,"animRepeatCount":1.0,"animOffset":0.0,"animUseCustomRange":false,"animCustomRangeFrom":0,"animCustomRangeTo":100,"renderOrder":0,"frustumCulling":true}},{"mesh":6,"translation":[-0.00244773855,-8.945465E-06,-3.91295882E-13],"name":"baseBoardSmall","extras":{"animAuto":true,"animLoop":"Repeat","animRepeatInfinite":true,"animRepeatCount":1.0,"animOffset":0.0,"animUseCustomRange":false,"animCustomRangeFrom":0,"animCustomRangeTo":100}},{"mesh":7,"translation":[-1.43900073,1.41999984,-5.08],"name":"windowFrame","extras":{"renderOrder":0,"frustumCulling":true,"animAuto":true,"animLoop":"Repeat","animRepeatInfinite":true,"animRepeatCount":1.0,"animOffset":0.0,"animUseCustomRange":false,"animCustomRangeFrom":0,"animCustomRangeTo":100}},{"mesh":8,"translation":[2.07070041,1.41999984,-5.08],"name":"windowFrame001","extras":{"renderOrder":0,"frustumCulling":true,"animAuto":true,"animLoop":"Repeat","animRepeatInfinite":true,"animRepeatCount":1.0,"animOffset":0.0,"animUseCustomRange":false,"animCustomRangeFrom":0,"animCustomRangeTo":100}}],"meshes":[{"primitives":[{"attributes":{"POSITION":1,"NORMAL":2,"TEXCOORD_0":3,"TEXCOORD_1":4},"indices":0,"material":0}],"name":"Apartments_base"},{"primitives":[{"attributes":{"POSITION":6,"NORMAL":7,"TEXCOORD_0":8,"TEXCOORD_1":9},"indices":5,"material":1}],"name":"baseBoard"},{"primitives":[{"attributes":{"POSITION":11,"NORMAL":12,"TEXCOORD_1":13},"indices":10,"material":1}],"name":"doorjamb"},{"primitives":[{"attributes":{"POSITION":15,"NORMAL":16,"TEXCOORD_0":17},"indices":14,"material":2}],"name":"backDrop"},{"primitives":[{"attributes":{"POSITION":19,"NORMAL":20,"TEXCOORD_0":21,"TEXCOORD_1":22},"indices":18,"material":3}],"name":"apartment_floor"},{"primitives":[{"attributes":{"POSITION":24,"NORMAL":25,"TEXCOORD_0":26,"TEXCOORD_1":27},"indices":23,"material":4}],"name":"apartment_roof"},{"primitives":[{"attributes":{"POSITION":29,"NORMAL":30,"TEXCOORD_1":31},"indices":28,"material":1}],"name":"baseBoardSmall"},{"primitives":[{"attributes":{"POSITION":33,"NORMAL":34,"TEXCOORD_0":35},"indices":32,"material":5}],"name":"windowFrame"},{"primitives":[{"attributes":{"POSITION":37,"NORMAL":38,"TEXCOORD_0":39},"indices":36,"material":5}],"name":"windowFrame001"}],"accessors":[{"bufferView":0,"componentType":5123,"count":252,"type":"SCALAR","name":"accessorIndices"},{"bufferView":1,"componentType":5126,"count":252,"max":[3.83000016,2.93669,5.08],"min":[-3.83,-0.199979246,-5.24],"type":"VEC3","name":"accessorPositions"},{"bufferView":1,"byteOffset":3024,"componentType":5126,"count":252,"type":"VEC3","name":"accessorNormals"},{"bufferView":2,"componentType":5126,"count":252,"type":"VEC2","name":"accessorUVs"},{"bufferView":2,"byteOffset":2016,"componentType":5126,"count":252,"type":"VEC2","name":"accessorUV2s"},{"bufferView":0,"byteOffset":504,"componentType":5123,"count":1428,"type":"SCALAR","name":"accessorIndices"},{"bufferView":1,"byteOffset":6048,"componentType":5126,"count":1428,"max":[3.66999984,0.160005227,4.92000055],"min":[-3.66999984,-9.029677E-06,-4.92],"type":"VEC3","name":"accessorPositions"},{"bufferView":1,"byteOffset":23184,"componentType":5126,"count":1428,"type":"VEC3","name":"accessorNormals"},{"bufferView":2,"byteOffset":4032,"componentType":5126,"count":1428,"type":"VEC2","name":"accessorUVs"},{"bufferView":2,"byteOffset":15456,"componentType":5126,"count":1428,"type":"VEC2","name":"accessorUV2s"},{"bufferView":0,"byteOffset":3360,"componentType":5123,"count":162,"type":"SCALAR","name":"accessorIndices"},{"bufferView":1,"byteOffset":40320,"componentType":5126,"count":162,"max":[1.06456172,2.0262053,1.88947022],"min":[0.191370383,0.0,1.70335686],"type":"VEC3","name":"accessorPositions"},{"bufferView":1,"byteOffset":42264,"componentType":5126,"count":162,"type":"VEC3","name":"accessorNormals"},{"bufferView":2,"byteOffset":26880,"componentType":5126,"count":162,"type":"VEC2","name":"accessorUV2s"},{"bufferView":0,"byteOffset":3684,"componentType":5123,"count":6,"type":"SCALAR","name":"accessorIndices"},{"bufferView":1,"byteOffset":44208,"componentType":5126,"count":6,"max":[9.599999,0.0,5.4],"min":[-9.599999,0.0,-5.4],"type":"VEC3","name":"accessorPositions"},{"bufferView":1,"byteOffset":44280,"componentType":5126,"count":6,"type":"VEC3","name":"accessorNormals"},{"bufferView":2,"byteOffset":28176,"componentType":5126,"count":6,"type":"VEC2","name":"accessorUVs"},{"bufferView":0,"byteOffset":3696,"componentType":5123,"count":6,"type":"SCALAR","name":"accessorIndices"},{"bufferView":1,"byteOffset":44352,"componentType":5126,"count":6,"max":[3.83,0.0,5.08],"min":[-3.83,0.0,-5.24],"type":"VEC3","name":"accessorPositions"},{"bufferView":1,"byteOffset":44424,"componentType":5126,"count":6,"type":"VEC3","name":"accessorNormals"},{"bufferView":2,"byteOffset":28224,"componentType":5126,"count":6,"type":"VEC2","name":"accessorUVs"},{"bufferView":2,"byteOffset":28272,"componentType":5126,"count":6,"type":"VEC2","name":"accessorUV2s"},{"bufferView":0,"byteOffset":3708,"componentType":5123,"count":6,"type":"SCALAR","name":"accessorIndices"},{"bufferView":1,"byteOffset":44496,"componentType":5126,"count":6,"max":[3.83,2.7,5.08],"min":[-3.83,2.7,-5.24],"type":"VEC3","name":"accessorPositions"},{"bufferView":1,"byteOffset":44568,"componentType":5126,"count":6,"type":"VEC3","name":"accessorNormals"},{"bufferView":2,"byteOffset":28320,"componentType":5126,"count":6,"type":"VEC2","name":"accessorUVs"},{"bufferView":2,"byteOffset":28368,"componentType":5126,"count":6,"type":"VEC2","name":"accessorUV2s"},{"bufferView":0,"byteOffset":3720,"componentType":5123,"count":810,"type":"SCALAR","name":"accessorIndices"},{"bufferView":1,"byteOffset":44640,"componentType":5126,"count":810,"max":[3.670002,0.04999991,4.92000341],"min":[-3.66999936,-1.23977657E-07,-4.92000055],"type":"VEC3","name":"accessorPositions"},{"bufferView":1,"byteOffset":54360,"componentType":5126,"count":810,"type":"VEC3","name":"accessorNormals"},{"bufferView":2,"byteOffset":28416,"componentType":5126,"count":810,"type":"VEC2","name":"accessorUV2s"},{"bufferView":0,"byteOffset":5340,"componentType":5123,"count":1560,"type":"SCALAR","name":"accessorIndices"},{"bufferView":1,"byteOffset":64080,"componentType":5126,"count":1560,"max":[1.36727643,1.26000011,0.0516374819],"min":[-1.36727643,-1.26,-0.0516374819],"type":"VEC3","name":"accessorPositions"},{"bufferView":1,"byteOffset":82800,"componentType":5126,"count":1560,"type":"VEC3","name":"accessorNormals"},{"bufferView":2,"byteOffset":34896,"componentType":5126,"count":1560,"type":"VEC2","name":"accessorUVs"},{"bufferView":0,"byteOffset":8460,"componentType":5123,"count":1560,"type":"SCALAR","name":"accessorIndices"},{"bufferView":1,"byteOffset":101520,"componentType":5126,"count":1560,"max":[1.36727643,1.26000011,0.0516374819],"min":[-1.36727643,-1.26,-0.0516374819],"type":"VEC3","name":"accessorPositions"},{"bufferView":1,"byteOffset":120240,"componentType":5126,"count":1560,"type":"VEC3","name":"accessorNormals"},{"bufferView":2,"byteOffset":47376,"componentType":5126,"count":1560,"type":"VEC2","name":"accessorUVs"}],"bufferViews":[{"buffer":0,"byteLength":11580,"name":"bufferViewScalar"},{"buffer":0,"byteOffset":11580,"byteLength":138960,"byteStride":12,"name":"bufferViewFloatVec3"},{"buffer":0,"byteOffset":150540,"byteLength":59856,"byteStride":8,"name":"bufferViewFloatVec2"}],"buffers":[{"uri":"apartments_base.bin","byteLength":210396}],"materials":[{"pbrMetallicRoughness":{"baseColorFactor":[0.5,0.431551158,0.4172662,1.0],"metallicFactor":0.0,"roughnessFactor":0.0},"occlusionTexture":{"index":0,"texCoord":1},"name":"wallMaterial","extras":{"babylonUseFactors":false,"babylonDirectIntensity":1.0,"babylonEmissiveIntensity":1.0,"babylonEnvironmentIntensity":1.0,"babylonSpecularIntensity":1.0,"alphaMode":"Auto","twoSided":false,"depthWrite":true,"depthTest":true,"dithering":false,"gltfCompat":false}},{"pbrMetallicRoughness":{"baseColorFactor":[0.5,0.5,0.5,1.0],"metallicFactor":0.0,"roughnessFactor":0.0},"occlusionTexture":{"index":0,"texCoord":1},"name":"baseboardMaterial","extras":{"babylonUseFactors":false,"babylonDirectIntensity":1.0,"babylonEmissiveIntensity":1.0,"babylonEnvironmentIntensity":1.0,"babylonSpecularIntensity":1.0,"alphaMode":"Auto","twoSided":false,"depthWrite":true,"depthTest":true,"dithering":false,"gltfCompat":false}},{"pbrMetallicRoughness":{"baseColorFactor":[0.0,0.0,0.0,1.0],"metallicFactor":0.0,"roughnessFactor":0.0},"emissiveTexture":{"index":1},"emissiveFactor":[1.0,1.0,1.0],"name":"backDropMaterial","extras":{"babylonUseFactors":false,"babylonDirectIntensity":1.0,"babylonEmissiveIntensity":1.0,"babylonEnvironmentIntensity":1.0,"babylonSpecularIntensity":1.0,"alphaMode":"Auto","twoSided":false,"depthWrite":true,"depthTest":true,"dithering":false,"gltfCompat":false}},{"pbrMetallicRoughness":{"baseColorTexture":{"index":4},"metallicFactor":0.0,"metallicRoughnessTexture":{"index":3,"texCoord":1}},"normalTexture":{"index":2,"scale":0.3},"occlusionTexture":{"index":3,"texCoord":1},"name":"floorMaterial","extras":{"babylonUseFactors":false,"babylonDirectIntensity":1.0,"babylonEmissiveIntensity":1.0,"babylonEnvironmentIntensity":1.0,"babylonSpecularIntensity":1.0,"alphaMode":"Auto","twoSided":false,"depthWrite":true,"depthTest":true,"dithering":false,"gltfCompat":false}},{"pbrMetallicRoughness":{"baseColorFactor":[0.5,0.5,0.5,1.0],"metallicFactor":0.0,"roughnessFactor":0.0},"occlusionTexture":{"index":0,"texCoord":1},"name":"roofMaterial","extras":{"babylonUseFactors":false,"babylonDirectIntensity":1.0,"babylonEmissiveIntensity":1.0,"babylonEnvironmentIntensity":1.0,"babylonSpecularIntensity":1.0,"alphaMode":"Auto","twoSided":false,"depthWrite":true,"depthTest":true,"dithering":false,"gltfCompat":false}},{"pbrMetallicRoughness":{"baseColorFactor":[0.09019608,0.09019608,0.09019608,1.0],"metallicFactor":0.0,"roughnessFactor":0.0},"name":"windowFrameMaterial","extras":{"babylonUseFactors":false,"babylonDirectIntensity":1.0,"babylonEmissiveIntensity":1.0,"babylonEnvironmentIntensity":1.0,"babylonSpecularIntensity":1.0,"alphaMode":"Auto","twoSided":false,"depthWrite":true,"depthTest":true,"dithering":false,"gltfCompat":false}}],"textures":[{"sampler":0,"source":0,"name":"lightmap_baked.jpg"},{"sampler":0,"source":1,"name":"30-e-31-morris-adjmi_dezeen_2364_hero-852x479.jpg"},{"sampler":0,"source":2,"name":"apartment_floor_n.jpg"},{"sampler":0,"source":3,"name":"lightmap_bakedapartment_floor_r0.jpg"},{"sampler":0,"source":4,"name":"apartment_floor_bc.jpg"}],"images":[{"uri":"./lightmap_baked.jpg"},{"uri":"./30-e-31-morris-adjmi_dezeen_2364_hero-852x479.jpg"},{"uri":"./apartment_floor_n.jpg"},{"uri":"./lightmap_bakedapartment_floor_r0.jpg"},{"uri":"./apartment_floor_bc.jpg"}],"samplers":[{"magFilter":9729,"minFilter":9987}]}