{"asset":{"version":"2.0","generator":"babylon.js glTF exporter for 3dsmax 2020 v20210308.2"},"scene":0,"scenes":[{"nodes":[0,1]}],"nodes":[{"mesh":0,"translation":[0.0,0.199999988,0.0500000045],"scale":[2.54,2.54,2.54],"name":"chest_white","extras":{"animAuto":true,"animLoop":"Repeat","animRepeatInfinite":true,"animRepeatCount":1.0,"animOffset":0.0,"animUseCustomRange":false,"animCustomRangeFrom":0,"animCustomRangeTo":100,"renderOrder":0,"frustumCulling":true,"cgaxis_models_48_32_02.Custom_Attributes.MaxHandle":1}},{"mesh":1,"translation":[-0.63,0.0,0.229999974],"scale":[2.54,2.54,2.54],"name":"chest_wood","extras":{"animAuto":true,"animLoop":"Repeat","animRepeatInfinite":true,"animRepeatCount":1.0,"animOffset":0.0,"animUseCustomRange":false,"animCustomRangeFrom":0,"animCustomRangeTo":100,"renderOrder":0,"frustumCulling":true,"cgaxis_models_48_32_01.Custom_Attributes.MaxHandle":6}}],"meshes":[{"primitives":[{"attributes":{"POSITION":1,"NORMAL":2,"TEXCOORD_0":3},"indices":0,"material":0}],"name":"chest_white"},{"primitives":[{"attributes":{"POSITION":5,"NORMAL":6,"TEXCOORD_0":7},"indices":4,"material":1}],"name":"chest_wood"}],"accessors":[{"bufferView":0,"componentType":5123,"count":1614,"type":"SCALAR","name":"accessorIndices"},{"bufferView":1,"componentType":5126,"count":1614,"max":[0.275590539,0.09448819,0.0984251946],"min":[-0.275590539,0.0,-0.0984252244],"type":"VEC3","name":"accessorPositions"},{"bufferView":1,"byteOffset":19368,"componentType":5126,"count":1614,"type":"VEC3","name":"accessorNormals"},{"bufferView":2,"componentType":5126,"count":1614,"type":"VEC2","name":"accessorUVs"},{"bufferView":0,"byteOffset":3228,"componentType":5123,"count":4356,"type":"SCALAR","name":"accessorIndices"},{"bufferView":1,"byteOffset":38736,"componentType":5126,"count":4356,"max":[0.5141732,0.1637795,0.02755908],"min":[-0.0181102362,0.0,-0.150986075],"type":"VEC3","name":"accessorPositions"},{"bufferView":1,"byteOffset":91008,"componentType":5126,"count":4356,"type":"VEC3","name":"accessorNormals"},{"bufferView":2,"byteOffset":12912,"componentType":5126,"count":4356,"type":"VEC2","name":"accessorUVs"}],"bufferViews":[{"buffer":0,"byteLength":11940,"name":"bufferViewScalar"},{"buffer":0,"byteOffset":11940,"byteLength":143280,"byteStride":12,"name":"bufferViewFloatVec3"},{"buffer":0,"byteOffset":155220,"byteLength":47760,"byteStride":8,"name":"bufferViewFloatVec2"}],"buffers":[{"uri":"apartment_chest.bin","byteLength":202980}],"materials":[{"pbrMetallicRoughness":{"baseColorFactor":[0.8980392,0.8980392,0.8980392,1.0],"metallicFactor":0.0,"roughnessFactor":0.0},"name":"furniture_white_polished_Material","extras":{"babylonUseFactors":false,"babylonDirectIntensity":1.0,"babylonEmissiveIntensity":1.0,"babylonEnvironmentIntensity":1.0,"babylonSpecularIntensity":1.0,"alphaMode":"Auto","twoSided":false,"depthWrite":true,"depthTest":true,"dithering":false,"gltfCompat":false}},{"pbrMetallicRoughness":{"baseColorTexture":{"index":0},"metallicFactor":0.0,"roughnessFactor":0.0},"name":"furniture_light_wood_Material","extras":{"babylonUseFactors":false,"babylonDirectIntensity":1.0,"babylonEmissiveIntensity":1.0,"babylonEnvironmentIntensity":1.0,"babylonSpecularIntensity":1.0,"alphaMode":"Auto","twoSided":false,"depthWrite":true,"depthTest":true,"dithering":false,"gltfCompat":false}}],"textures":[{"sampler":0,"source":0,"name":"cgaxis_models_48_32_01.jpg"}],"images":[{"uri":"./cgaxis_models_48_32_01.jpg"}],"samplers":[{"magFilter":9729,"minFilter":9987}]}