{"asset":{"version":"2.0","generator":"babylon.js glTF exporter for 3dsmax 2020 v20210308.2"},"scene":0,"scenes":[{"nodes":[0,1,2,3,5,7,8,9,10,11]}],"nodes":[{"mesh":0,"name":"Apartments_base","extras":{"renderOrder":0,"frustumCulling":true,"animAuto":true,"animLoop":"Repeat","animRepeatInfinite":true,"animRepeatCount":1.0,"animOffset":0.0,"animUseCustomRange":false,"animCustomRangeFrom":0,"animCustomRangeTo":100}},{"mesh":1,"translation":[-0.00244773855,0.0,0.0],"name":"baseBoard","extras":{"renderOrder":0,"frustumCulling":true,"animAuto":true,"animLoop":"Repeat","animRepeatInfinite":true,"animRepeatCount":1.0,"animOffset":0.0,"animUseCustomRange":false,"animCustomRangeFrom":0,"animCustomRangeTo":100}},{"mesh":2,"name":"doorjamb","extras":{"animAuto":true,"animLoop":"Repeat","animRepeatInfinite":true,"animRepeatCount":1.0,"animOffset":0.0,"animUseCustomRange":false,"animCustomRangeFrom":0,"animCustomRangeTo":100,"renderOrder":0,"frustumCulling":true}},{"children":[4],"translation":[-1.43900073,1.41999984,-5.07999945],"name":"window"},{"mesh":3,"translation":[0.0,0.0,-6.10351549E-07],"name":"windowFrame","extras":{"renderOrder":0,"frustumCulling":true,"animAuto":true,"animLoop":"Repeat","animRepeatInfinite":true,"animRepeatCount":1.0,"animOffset":0.0,"animUseCustomRange":false,"animCustomRangeFrom":0,"animCustomRangeTo":100}},{"children":[6],"translation":[2.07070041,1.41999984,-5.07999945],"name":"window001"},{"mesh":4,"translation":[0.0,0.0,-6.10351549E-07],"name":"windowFrame001","extras":{"renderOrder":0,"frustumCulling":true,"animAuto":true,"animLoop":"Repeat","animRepeatInfinite":true,"animRepeatCount":1.0,"animOffset":0.0,"animUseCustomRange":false,"animCustomRangeFrom":0,"animCustomRangeTo":100}},{"translation":[-0.4589523,1.16555572,0.0],"name":"CoronaCamera001.Target"},{"translation":[0.134807959,1.00000007E-05,-6.11841059],"name":"CoronaSun001.Target"},{"mesh":5,"translation":[-1.97407222,10.15075,-39.52689],"rotation":[0.7071068,0.0,0.0,0.7071067],"scale":[2.69676757,2.69676757,2.69676757],"name":"backDrop","extras":{"animAuto":true,"animLoop":"Repeat","animRepeatInfinite":true,"animRepeatCount":1.0,"animOffset":0.0,"animUseCustomRange":false,"animCustomRangeFrom":0,"animCustomRangeTo":100,"renderOrder":0,"frustumCulling":true}},{"mesh":6,"name":"apartment_floor","extras":{"animAuto":true,"animLoop":"Repeat","animRepeatInfinite":true,"animRepeatCount":1.0,"animOffset":0.0,"animUseCustomRange":false,"animCustomRangeFrom":0,"animCustomRangeTo":100,"renderOrder":0,"frustumCulling":true}},{"mesh":7,"name":"apartment_roof","extras":{"animAuto":true,"animLoop":"Repeat","animRepeatInfinite":true,"animRepeatCount":1.0,"animOffset":0.0,"animUseCustomRange":false,"animCustomRangeFrom":0,"animCustomRangeTo":100,"renderOrder":0,"frustumCulling":true}}],"meshes":[{"primitives":[{"attributes":{"POSITION":1,"NORMAL":2,"TEXCOORD_0":3,"TEXCOORD_1":4},"indices":0,"material":0}],"name":"Apartments_base"},{"primitives":[{"attributes":{"POSITION":6,"NORMAL":7,"TEXCOORD_0":8,"TEXCOORD_1":9},"indices":5,"material":1}],"name":"baseBoard"},{"primitives":[{"attributes":{"POSITION":11,"NORMAL":12,"TEXCOORD_1":13},"indices":10,"material":1}],"name":"doorjamb"},{"primitives":[{"attributes":{"POSITION":15,"NORMAL":16,"TEXCOORD_0":17},"indices":14,"material":2}],"name":"windowFrame"},{"primitives":[{"attributes":{"POSITION":19,"NORMAL":20,"TEXCOORD_0":21},"indices":18,"material":2}],"name":"windowFrame001"},{"primitives":[{"attributes":{"POSITION":23,"NORMAL":24,"TEXCOORD_0":25},"indices":22,"material":3}],"name":"backDrop"},{"primitives":[{"attributes":{"POSITION":27,"NORMAL":28,"TEXCOORD_0":29,"TEXCOORD_1":30},"indices":26,"material":4}],"name":"apartment_floor"},{"primitives":[{"attributes":{"POSITION":32,"NORMAL":33,"TEXCOORD_0":34,"TEXCOORD_1":35},"indices":31,"material":5}],"name":"apartment_roof"}],"accessors":[{"bufferView":0,"componentType":5123,"count":252,"type":"SCALAR","name":"accessorIndices"},{"bufferView":1,"componentType":5126,"count":252,"max":[3.83000016,2.93669,5.08],"min":[-3.83,-0.199979246,-5.24],"type":"VEC3","name":"accessorPositions"},{"bufferView":1,"byteOffset":3024,"componentType":5126,"count":252,"type":"VEC3","name":"accessorNormals"},{"bufferView":2,"componentType":5126,"count":252,"type":"VEC2","name":"accessorUVs"},{"bufferView":2,"byteOffset":2016,"componentType":5126,"count":252,"type":"VEC2","name":"accessorUV2s"},{"bufferView":0,"byteOffset":504,"componentType":5123,"count":1428,"type":"SCALAR","name":"accessorIndices"},{"bufferView":1,"byteOffset":6048,"componentType":5126,"count":1428,"max":[3.66999984,0.160005227,4.92000055],"min":[-3.66999984,-9.029677E-06,-4.92],"type":"VEC3","name":"accessorPositions"},{"bufferView":1,"byteOffset":23184,"componentType":5126,"count":1428,"type":"VEC3","name":"accessorNormals"},{"bufferView":2,"byteOffset":4032,"componentType":5126,"count":1428,"type":"VEC2","name":"accessorUVs"},{"bufferView":2,"byteOffset":15456,"componentType":5126,"count":1428,"type":"VEC2","name":"accessorUV2s"},{"bufferView":0,"byteOffset":3360,"componentType":5123,"count":162,"type":"SCALAR","name":"accessorIndices"},{"bufferView":1,"byteOffset":40320,"componentType":5126,"count":162,"max":[1.06456172,2.0262053,1.88947022],"min":[0.191370383,0.0,1.70335686],"type":"VEC3","name":"accessorPositions"},{"bufferView":1,"byteOffset":42264,"componentType":5126,"count":162,"type":"VEC3","name":"accessorNormals"},{"bufferView":2,"byteOffset":26880,"componentType":5126,"count":162,"type":"VEC2","name":"accessorUV2s"},{"bufferView":0,"byteOffset":3684,"componentType":5123,"count":1560,"type":"SCALAR","name":"accessorIndices"},{"bufferView":1,"byteOffset":44208,"componentType":5126,"count":1560,"max":[1.36727643,1.26000011,0.0516374819],"min":[-1.36727643,-1.26,-0.0516374819],"type":"VEC3","name":"accessorPositions"},{"bufferView":1,"byteOffset":62928,"componentType":5126,"count":1560,"type":"VEC3","name":"accessorNormals"},{"bufferView":2,"byteOffset":28176,"componentType":5126,"count":1560,"type":"VEC2","name":"accessorUVs"},{"bufferView":0,"byteOffset":6804,"componentType":5123,"count":1560,"type":"SCALAR","name":"accessorIndices"},{"bufferView":1,"byteOffset":81648,"componentType":5126,"count":1560,"max":[1.36727643,1.26000011,0.0516374819],"min":[-1.36727643,-1.26,-0.0516374819],"type":"VEC3","name":"accessorPositions"},{"bufferView":1,"byteOffset":100368,"componentType":5126,"count":1560,"type":"VEC3","name":"accessorNormals"},{"bufferView":2,"byteOffset":40656,"componentType":5126,"count":1560,"type":"VEC2","name":"accessorUVs"},{"bufferView":0,"byteOffset":9924,"componentType":5123,"count":6,"type":"SCALAR","name":"accessorIndices"},{"bufferView":1,"byteOffset":119088,"componentType":5126,"count":6,"max":[9.599999,0.0,5.4],"min":[-9.599999,0.0,-5.4],"type":"VEC3","name":"accessorPositions"},{"bufferView":1,"byteOffset":119160,"componentType":5126,"count":6,"type":"VEC3","name":"accessorNormals"},{"bufferView":2,"byteOffset":53136,"componentType":5126,"count":6,"type":"VEC2","name":"accessorUVs"},{"bufferView":0,"byteOffset":9936,"componentType":5123,"count":6,"type":"SCALAR","name":"accessorIndices"},{"bufferView":1,"byteOffset":119232,"componentType":5126,"count":6,"max":[3.83,0.0,5.08],"min":[-3.83,0.0,-5.24],"type":"VEC3","name":"accessorPositions"},{"bufferView":1,"byteOffset":119304,"componentType":5126,"count":6,"type":"VEC3","name":"accessorNormals"},{"bufferView":2,"byteOffset":53184,"componentType":5126,"count":6,"type":"VEC2","name":"accessorUVs"},{"bufferView":2,"byteOffset":53232,"componentType":5126,"count":6,"type":"VEC2","name":"accessorUV2s"},{"bufferView":0,"byteOffset":9948,"componentType":5123,"count":6,"type":"SCALAR","name":"accessorIndices"},{"bufferView":1,"byteOffset":119376,"componentType":5126,"count":6,"max":[3.83,2.7,5.08],"min":[-3.83,2.7,-5.24],"type":"VEC3","name":"accessorPositions"},{"bufferView":1,"byteOffset":119448,"componentType":5126,"count":6,"type":"VEC3","name":"accessorNormals"},{"bufferView":2,"byteOffset":53280,"componentType":5126,"count":6,"type":"VEC2","name":"accessorUVs"},{"bufferView":2,"byteOffset":53328,"componentType":5126,"count":6,"type":"VEC2","name":"accessorUV2s"}],"bufferViews":[{"buffer":0,"byteLength":9960,"name":"bufferViewScalar"},{"buffer":0,"byteOffset":9960,"byteLength":119520,"byteStride":12,"name":"bufferViewFloatVec3"},{"buffer":0,"byteOffset":129480,"byteLength":53376,"byteStride":8,"name":"bufferViewFloatVec2"}],"buffers":[{"uri":"apartments_base.bin","byteLength":182856}],"materials":[{"pbrMetallicRoughness":{"baseColorFactor":[0.5,0.431551158,0.4172662,1.0],"metallicFactor":0.0,"roughnessFactor":0.0},"occlusionTexture":{"index":0,"texCoord":1},"name":"wallMaterial","extras":{"babylonUseFactors":false,"babylonDirectIntensity":1.0,"babylonEmissiveIntensity":1.0,"babylonEnvironmentIntensity":1.0,"babylonSpecularIntensity":1.0,"alphaMode":"Auto","twoSided":false,"depthWrite":true,"depthTest":true,"dithering":false,"gltfCompat":false}},{"pbrMetallicRoughness":{"baseColorFactor":[0.5,0.5,0.5,1.0],"metallicFactor":0.0,"roughnessFactor":0.0},"occlusionTexture":{"index":0,"texCoord":1},"name":"baseboardMaterial","extras":{"babylonUseFactors":false,"babylonDirectIntensity":1.0,"babylonEmissiveIntensity":1.0,"babylonEnvironmentIntensity":1.0,"babylonSpecularIntensity":1.0,"alphaMode":"Auto","twoSided":false,"depthWrite":true,"depthTest":true,"dithering":false,"gltfCompat":false}},{"pbrMetallicRoughness":{"baseColorFactor":[0.09019608,0.09019608,0.09019608,1.0],"metallicFactor":0.0,"roughnessFactor":0.0},"name":"windowFrameMaterial","extras":{"babylonUseFactors":false,"babylonDirectIntensity":1.0,"babylonEmissiveIntensity":1.0,"babylonEnvironmentIntensity":1.0,"babylonSpecularIntensity":1.0,"alphaMode":"Auto","twoSided":false,"depthWrite":true,"depthTest":true,"dithering":false,"gltfCompat":false}},{"pbrMetallicRoughness":{"baseColorFactor":[0.0,0.0,0.0,1.0],"metallicFactor":0.0,"roughnessFactor":0.0},"emissiveTexture":{"index":1},"emissiveFactor":[1.0,1.0,1.0],"name":"backDropMaterial","extras":{"babylonUseFactors":false,"babylonDirectIntensity":1.0,"babylonEmissiveIntensity":1.0,"babylonEnvironmentIntensity":1.0,"babylonSpecularIntensity":1.0,"alphaMode":"Auto","twoSided":false,"depthWrite":true,"depthTest":true,"dithering":false,"gltfCompat":false}},{"pbrMetallicRoughness":{"baseColorTexture":{"index":4},"metallicFactor":0.0,"metallicRoughnessTexture":{"index":3,"texCoord":1}},"normalTexture":{"index":2,"scale":0.3},"occlusionTexture":{"index":3,"texCoord":1},"name":"floorMaterial","extras":{"babylonUseFactors":false,"babylonDirectIntensity":1.0,"babylonEmissiveIntensity":1.0,"babylonEnvironmentIntensity":1.0,"babylonSpecularIntensity":1.0,"alphaMode":"Auto","twoSided":false,"depthWrite":true,"depthTest":true,"dithering":false,"gltfCompat":false}},{"pbrMetallicRoughness":{"baseColorFactor":[0.5,0.5,0.5,1.0],"metallicFactor":0.0,"roughnessFactor":0.0},"occlusionTexture":{"index":0,"texCoord":1},"name":"roofMaterial","extras":{"babylonUseFactors":false,"babylonDirectIntensity":1.0,"babylonEmissiveIntensity":1.0,"babylonEnvironmentIntensity":1.0,"babylonSpecularIntensity":1.0,"alphaMode":"Auto","twoSided":false,"depthWrite":true,"depthTest":true,"dithering":false,"gltfCompat":false}}],"textures":[{"sampler":0,"source":0,"name":"lightmap_baked.jpg"},{"sampler":0,"source":1,"name":"30-e-31-morris-adjmi_dezeen_2364_hero-852x479.jpg"},{"sampler":0,"source":2,"name":"apartment_floor_n.jpg"},{"sampler":0,"source":3,"name":"lightmap_bakedapartment_floor_r0.jpg"},{"sampler":0,"source":4,"name":"apartment_floor_bc.jpg"}],"images":[{"uri":"./lightmap_baked.jpg"},{"uri":"./30-e-31-morris-adjmi_dezeen_2364_hero-852x479.jpg"},{"uri":"./apartment_floor_n.jpg"},{"uri":"./lightmap_bakedapartment_floor_r0.jpg"},{"uri":"./apartment_floor_bc.jpg"}],"samplers":[{"magFilter":9729,"minFilter":9987}]}