{"asset":{"version":"2.0","generator":"babylon.js glTF exporter for 3dsmax 2020 v20210308.2"},"scene":0,"scenes":[{"nodes":[0,1,2]}],"nodes":[{"translation":[-0.4589523,1.16555572,0.0],"name":"CoronaCamera001.Target"},{"translation":[0.134807959,1.00000007E-05,-6.11841059],"name":"CoronaSun001.Target"},{"mesh":0,"translation":[-0.00244773855,-8.945465E-06,-3.91295882E-13],"name":"baseBoardSmall","extras":{"animAuto":true,"animLoop":"Repeat","animRepeatInfinite":true,"animRepeatCount":1.0,"animOffset":0.0,"animUseCustomRange":false,"animCustomRangeFrom":0,"animCustomRangeTo":100}}],"meshes":[{"primitives":[{"attributes":{"POSITION":1,"NORMAL":2,"TEXCOORD_1":3},"indices":0,"material":0}],"name":"baseBoardSmall"}],"accessors":[{"bufferView":0,"componentType":5123,"count":810,"type":"SCALAR","name":"accessorIndices"},{"bufferView":1,"componentType":5126,"count":810,"max":[3.670002,0.04999991,4.92000341],"min":[-3.66999936,-1.23977657E-07,-4.92000055],"type":"VEC3","name":"accessorPositions"},{"bufferView":1,"byteOffset":9720,"componentType":5126,"count":810,"type":"VEC3","name":"accessorNormals"},{"bufferView":2,"componentType":5126,"count":810,"type":"VEC2","name":"accessorUV2s"}],"bufferViews":[{"buffer":0,"byteLength":1620,"name":"bufferViewScalar"},{"buffer":0,"byteOffset":1620,"byteLength":19440,"byteStride":12,"name":"bufferViewFloatVec3"},{"buffer":0,"byteOffset":21060,"byteLength":6480,"byteStride":8,"name":"bufferViewFloatVec2"}],"buffers":[{"uri":"baseBoardSmall.bin","byteLength":27540}],"materials":[{"pbrMetallicRoughness":{"baseColorFactor":[0.5,0.5,0.5,1.0],"metallicFactor":0.0,"roughnessFactor":0.0},"occlusionTexture":{"index":0,"texCoord":1},"name":"baseboardMaterial","extras":{"babylonUseFactors":false,"babylonDirectIntensity":1.0,"babylonEmissiveIntensity":1.0,"babylonEnvironmentIntensity":1.0,"babylonSpecularIntensity":1.0,"alphaMode":"Auto","twoSided":false,"depthWrite":true,"depthTest":true,"dithering":false,"gltfCompat":false}}],"textures":[{"sampler":0,"source":0,"name":"lightmap_baked.jpg"}],"images":[{"uri":"./lightmap_baked.jpg"}],"samplers":[{"magFilter":9729,"minFilter":9987}]}