{"asset":{"version":"2.0","generator":"babylon.js glTF exporter for 3dsmax 2020 v20210308.2"},"scene":0,"scenes":[{"nodes":[0,1,2,3]}],"nodes":[{"translation":[-0.4589523,1.16555572,0.0],"name":"CoronaCamera001.Target"},{"translation":[0.134807959,1.00000007E-05,-6.11841059],"name":"CoronaSun001.Target"},{"mesh":0,"translation":[0.0,0.0,4.87446778E-05],"name":"chair_chrome","extras":{"animAuto":true,"animLoop":"Repeat","animRepeatInfinite":true,"animRepeatCount":1.0,"animOffset":0.0,"animUseCustomRange":false,"animCustomRangeFrom":0,"animCustomRangeTo":100,"renderOrder":0,"frustumCulling":true}},{"mesh":1,"translation":[0.0,0.0,4.87446778E-05],"name":"chair_leather","extras":{"renderOrder":0,"frustumCulling":true,"animAuto":true,"animLoop":"Repeat","animRepeatInfinite":true,"animRepeatCount":1.0,"animOffset":0.0,"animUseCustomRange":false,"animCustomRangeFrom":0,"animCustomRangeTo":100}}],"meshes":[{"primitives":[{"attributes":{"POSITION":1,"NORMAL":2,"TEXCOORD_0":3},"indices":0,"material":0}],"name":"chair_chrome"},{"primitives":[{"attributes":{"POSITION":5,"NORMAL":6,"TEXCOORD_0":7},"indices":4,"material":1}],"name":"chair_leather"}],"accessors":[{"bufferView":0,"componentType":5123,"count":7320,"type":"SCALAR","name":"accessorIndices"},{"bufferView":1,"componentType":5126,"count":7320,"max":[0.236862108,0.8572875,0.19895108],"min":[-0.236862108,0.000376935961,-0.19895108],"type":"VEC3","name":"accessorPositions"},{"bufferView":1,"byteOffset":87840,"componentType":5126,"count":7320,"type":"VEC3","name":"accessorNormals"},{"bufferView":2,"componentType":5126,"count":7320,"type":"VEC2","name":"accessorUVs"},{"bufferView":0,"byteOffset":14640,"componentType":5123,"count":10236,"type":"SCALAR","name":"accessorIndices"},{"bufferView":1,"byteOffset":175680,"componentType":5126,"count":10236,"max":[0.24045974,0.9642906,0.208909914],"min":[-0.24045974,0.6317457,-0.263768852],"type":"VEC3","name":"accessorPositions"},{"bufferView":1,"byteOffset":298512,"componentType":5126,"count":10236,"type":"VEC3","name":"accessorNormals"},{"bufferView":2,"byteOffset":58560,"componentType":5126,"count":10236,"type":"VEC2","name":"accessorUVs"}],"bufferViews":[{"buffer":0,"byteLength":35112,"name":"bufferViewScalar"},{"buffer":0,"byteOffset":35112,"byteLength":421344,"byteStride":12,"name":"bufferViewFloatVec3"},{"buffer":0,"byteOffset":456456,"byteLength":140448,"byteStride":8,"name":"bufferViewFloatVec2"}],"buffers":[{"uri":"chair.bin","byteLength":596904}],"materials":[{"pbrMetallicRoughness":{"metallicFactor":0.0,"roughnessFactor":0.0},"name":"chair_chrome_Material","extras":{"alphaMode":"Auto","twoSided":false,"depthWrite":true,"depthTest":true,"dithering":false,"gltfCompat":false,"babylonUseFactors":false,"babylonDirectIntensity":1.0,"babylonEmissiveIntensity":1.0,"babylonEnvironmentIntensity":1.0,"babylonSpecularIntensity":1.0}},{"pbrMetallicRoughness":{"baseColorTexture":{"index":1},"metallicFactor":0.0,"roughnessFactor":0.649519},"normalTexture":{"index":0,"scale":0.1},"name":"chair_leather_Material","extras":{"alphaMode":"Auto","twoSided":false,"depthWrite":true,"depthTest":true,"dithering":false,"gltfCompat":false,"babylonUseFactors":false,"babylonDirectIntensity":1.0,"babylonEmissiveIntensity":1.0,"babylonEnvironmentIntensity":1.0,"babylonSpecularIntensity":1.0}}],"textures":[{"sampler":0,"source":0,"name":"cgaxis_models_38_32_01_N.jpg"},{"sampler":0,"source":1,"name":"cgaxis_models_38_32_01_bump.jpg"}],"images":[{"uri":"./cgaxis_models_38_32_01_N.jpg"},{"uri":"./cgaxis_models_38_32_01_bump.jpg"}],"samplers":[{"magFilter":9729,"minFilter":9987}]}