{"asset":{"version":"2.0","generator":"babylon.js glTF exporter for 3dsmax 2020 v20210308.2"},"scene":0,"scenes":[{"nodes":[0,1,2]}],"nodes":[{"translation":[-0.4589523,1.16555572,0.0],"name":"CoronaCamera001.Target"},{"translation":[0.134807959,1.00000007E-05,-6.11841059],"name":"CoronaSun001.Target"},{"children":[3,4,5,6],"translation":[0.234612122,0.99298203,1.71435356],"name":"door_Group"},{"mesh":0,"translation":[0.723767161,-0.0936116,0.0409964],"rotation":[0.7071068,0.0,0.0,0.7071067],"name":"door_lock","extras":{"renderOrder":0,"frustumCulling":true,"animAuto":true,"animLoop":"Repeat","animRepeatInfinite":true,"animRepeatCount":1.0,"animOffset":0.0,"animUseCustomRange":false,"animCustomRangeFrom":0,"animCustomRangeTo":100}},{"mesh":1,"translation":[0.723767161,0.0,0.0409964],"rotation":[0.7071068,0.0,0.0,0.7071067],"name":"door_handler_base","extras":{"renderOrder":0,"frustumCulling":true,"animAuto":true,"animLoop":"Repeat","animRepeatInfinite":true,"animRepeatCount":1.0,"animOffset":0.0,"animUseCustomRange":false,"animCustomRangeFrom":0,"animCustomRangeTo":100}},{"mesh":2,"translation":[0.723767161,0.0,0.0488583371],"rotation":[5.33850866E-08,-0.707106948,-0.7071066,5.33850653E-08],"scale":[1.0,1.0,0.770566642],"name":"door_handler","extras":{"renderOrder":0,"frustumCulling":true,"animAuto":true,"animLoop":"Repeat","animRepeatInfinite":true,"animRepeatCount":1.0,"animOffset":0.0,"animUseCustomRange":false,"animCustomRangeFrom":0,"animCustomRangeTo":100}},{"mesh":3,"translation":[0.0,-1.52587887E-07,0.0],"rotation":[0.7071068,0.0,0.0,0.7071067],"name":"door","extras":{"renderOrder":0,"frustumCulling":true,"animAuto":true,"animLoop":"Repeat","animRepeatInfinite":true,"animRepeatCount":1.0,"animOffset":0.0,"animUseCustomRange":false,"animCustomRangeFrom":0,"animCustomRangeTo":100}}],"meshes":[{"primitives":[{"attributes":{"POSITION":1,"NORMAL":2,"TEXCOORD_0":3},"indices":0,"material":0}],"name":"door_lock"},{"primitives":[{"attributes":{"POSITION":5,"NORMAL":6,"TEXCOORD_0":7},"indices":4,"material":1}],"name":"door_handler_base"},{"primitives":[{"attributes":{"POSITION":9,"NORMAL":10,"TEXCOORD_0":11},"indices":8,"material":1}],"name":"door_handler"},{"primitives":[{"attributes":{"POSITION":13,"NORMAL":14,"TEXCOORD_0":15},"indices":12,"material":2}],"name":"door"}],"accessors":[{"bufferView":0,"componentType":5123,"count":210,"type":"SCALAR","name":"accessorIndices"},{"bufferView":1,"componentType":5126,"count":210,"max":[0.03040073,0.007862255,0.03040073],"min":[-0.03040073,0.0,-0.03040073],"type":"VEC3","name":"accessorPositions"},{"bufferView":1,"byteOffset":2520,"componentType":5126,"count":210,"type":"VEC3","name":"accessorNormals"},{"bufferView":2,"componentType":5126,"count":210,"type":"VEC2","name":"accessorUVs"},{"bufferView":0,"byteOffset":420,"componentType":5123,"count":216,"type":"SCALAR","name":"accessorIndices"},{"bufferView":1,"byteOffset":5040,"componentType":5126,"count":216,"max":[0.03040073,0.007862255,0.03040073],"min":[-0.03040073,0.0,-0.03040073],"type":"VEC3","name":"accessorPositions"},{"bufferView":1,"byteOffset":7632,"componentType":5126,"count":216,"type":"VEC3","name":"accessorNormals"},{"bufferView":2,"byteOffset":1680,"componentType":5126,"count":216,"type":"VEC2","name":"accessorUVs"},{"bufferView":0,"byteOffset":852,"componentType":5123,"count":210,"type":"SCALAR","name":"accessorIndices"},{"bufferView":1,"byteOffset":10224,"componentType":5126,"count":210,"max":[0.1050263,0.0447528064,0.01],"min":[-0.01,0.0,-0.0100000007],"type":"VEC3","name":"accessorPositions"},{"bufferView":1,"byteOffset":12744,"componentType":5126,"count":210,"type":"VEC3","name":"accessorNormals"},{"bufferView":2,"byteOffset":3408,"componentType":5126,"count":210,"type":"VEC2","name":"accessorUVs"},{"bufferView":0,"byteOffset":1272,"componentType":5123,"count":324,"type":"SCALAR","name":"accessorIndices"},{"bufferView":1,"byteOffset":15264,"componentType":5126,"count":324,"max":[0.786708,0.0409960933,0.98998183],"min":[0.0,-1.14440915E-07,-0.98998183],"type":"VEC3","name":"accessorPositions"},{"bufferView":1,"byteOffset":19152,"componentType":5126,"count":324,"type":"VEC3","name":"accessorNormals"},{"bufferView":2,"byteOffset":5088,"componentType":5126,"count":324,"type":"VEC2","name":"accessorUVs"},{"bufferView":3,"componentType":5126,"count":20,"max":[1.63333333],"min":[0.0],"type":"SCALAR","name":"accessorAnimationInput"},{"bufferView":4,"componentType":5126,"count":20,"type":"VEC4","name":"accessorAnimationRotations"},{"bufferView":3,"byteOffset":80,"componentType":5126,"count":21,"max":[1.63333333],"min":[0.0],"type":"SCALAR","name":"accessorAnimationInput"},{"bufferView":4,"byteOffset":320,"componentType":5126,"count":21,"type":"VEC4","name":"accessorAnimationRotations"},{"bufferView":3,"byteOffset":164,"componentType":5126,"count":22,"max":[1.66666663],"min":[0.0],"type":"SCALAR","name":"accessorAnimationInput"},{"bufferView":4,"byteOffset":656,"componentType":5126,"count":22,"type":"VEC4","name":"accessorAnimationRotations"},{"bufferView":3,"byteOffset":252,"componentType":5126,"count":2,"max":[1.66666663],"min":[0.0],"type":"SCALAR","name":"accessorAnimationInput"},{"bufferView":4,"byteOffset":1008,"componentType":5126,"count":2,"type":"VEC4","name":"accessorAnimationRotations"}],"bufferViews":[{"buffer":0,"byteLength":1920,"name":"bufferViewScalar"},{"buffer":0,"byteOffset":1920,"byteLength":23040,"byteStride":12,"name":"bufferViewFloatVec3"},{"buffer":0,"byteOffset":24960,"byteLength":7680,"byteStride":8,"name":"bufferViewFloatVec2"},{"buffer":0,"byteOffset":32640,"byteLength":260,"name":"bufferViewAnimationFloatScalar"},{"buffer":0,"byteOffset":32900,"byteLength":1040,"name":"bufferViewAnimationFloatVec4"}],"buffers":[{"uri":"door.bin","byteLength":33940}],"materials":[{"pbrMetallicRoughness":{"baseColorTexture":{"index":0},"metallicFactor":0.0,"roughnessFactor":0.0},"name":"door_lock_Material","extras":{"babylonUseFactors":false,"babylonDirectIntensity":1.0,"babylonEmissiveIntensity":1.0,"babylonEnvironmentIntensity":1.0,"babylonSpecularIntensity":1.0,"alphaMode":"Auto","twoSided":false,"depthWrite":true,"depthTest":true,"dithering":false,"gltfCompat":false}},{"pbrMetallicRoughness":{"baseColorFactor":[0.3137255,0.2901961,0.266666681,1.0],"metallicFactor":0.0,"roughnessFactor":0.0},"name":"door_handle_Material","extras":{"babylonUseFactors":false,"babylonDirectIntensity":1.0,"babylonEmissiveIntensity":1.0,"babylonEnvironmentIntensity":1.0,"babylonSpecularIntensity":1.0,"alphaMode":"Auto","twoSided":false,"depthWrite":true,"depthTest":true,"dithering":false,"gltfCompat":false}},{"pbrMetallicRoughness":{"baseColorTexture":{"index":1},"metallicFactor":0.0,"metallicRoughnessTexture":{"index":2}},"name":"door_wood_Material","extras":{"babylonUseFactors":false,"babylonDirectIntensity":1.0,"babylonEmissiveIntensity":1.0,"babylonEnvironmentIntensity":1.0,"babylonSpecularIntensity":1.0,"alphaMode":"Auto","twoSided":false,"depthWrite":true,"depthTest":true,"dithering":false,"gltfCompat":false}}],"textures":[{"sampler":0,"source":0,"name":"door_lock_texture.jpg"},{"sampler":0,"source":1,"name":"eb442e5ff789.jpg"},{"sampler":0,"source":2,"name":"c3b2fdf4355b0.jpg"}],"images":[{"uri":"./door_lock_texture.jpg"},{"uri":"./eb442e5ff789.jpg"},{"uri":"./c3b2fdf4355b0.jpg"}],"samplers":[{"magFilter":9729,"minFilter":9987}],"animations":[{"channels":[{"sampler":0,"target":{"node":2,"path":"rotation"}},{"sampler":1,"target":{"node":5,"path":"rotation"}}],"samplers":[{"input":16,"output":17},{"input":18,"output":19}],"name":"openDoor"},{"channels":[{"sampler":0,"target":{"node":2,"path":"rotation"}},{"sampler":1,"target":{"node":5,"path":"rotation"}}],"samplers":[{"input":20,"output":21},{"input":22,"output":23}],"name":"closeDoor"}]}