{"asset":{"version":"2.0","generator":"babylon.js glTF exporter for 3dsmax 2020 v20210308.2"},"scene":0,"scenes":[{"nodes":[0,1,2,3]}],"nodes":[{"translation":[-0.4589523,1.16555572,0.0],"name":"CoronaCamera001.Target"},{"translation":[0.134807959,1.00000007E-05,-6.11841059],"name":"CoronaSun001.Target"},{"mesh":0,"translation":[-0.00164981838,0.2067905,9.039098E-09],"name":"light_metal","extras":{"animAuto":true,"animLoop":"Repeat","animRepeatInfinite":true,"animRepeatCount":1.0,"animOffset":0.0,"animUseCustomRange":false,"animCustomRangeFrom":0,"animCustomRangeTo":100,"renderOrder":0,"frustumCulling":true}},{"mesh":1,"translation":[-0.09311758,0.06315021,8.13491843E-11],"name":"light_lamp","extras":{"animAuto":true,"animLoop":"Repeat","animRepeatInfinite":true,"animRepeatCount":1.0,"animOffset":0.0,"animUseCustomRange":false,"animCustomRangeFrom":0,"animCustomRangeTo":100,"renderOrder":0,"frustumCulling":true}}],"meshes":[{"primitives":[{"attributes":{"POSITION":1,"NORMAL":2,"TEXCOORD_0":3},"indices":0,"material":0}],"name":"light_metal"},{"primitives":[{"attributes":{"POSITION":5,"NORMAL":6,"TEXCOORD_0":7},"indices":4,"material":1}],"name":"light_lamp"}],"accessors":[{"bufferView":0,"componentType":5123,"count":1800,"type":"SCALAR","name":"accessorIndices"},{"bufferView":1,"componentType":5126,"count":1800,"max":[0.00206941087,0.05201182,0.05201182],"min":[-0.125381663,-0.09540256,-0.05201182],"type":"VEC3","name":"accessorPositions"},{"bufferView":1,"byteOffset":21600,"componentType":5126,"count":1800,"type":"VEC3","name":"accessorNormals"},{"bufferView":2,"componentType":5126,"count":1800,"type":"VEC2","name":"accessorUVs"},{"bufferView":0,"byteOffset":3600,"componentType":5123,"count":2592,"type":"SCALAR","name":"accessorIndices"},{"bufferView":1,"byteOffset":43200,"componentType":5126,"count":2592,"max":[0.0574497655,0.0661399141,0.0574497655],"min":[-0.0574497655,-0.0574497655,-0.0574497655],"type":"VEC3","name":"accessorPositions"},{"bufferView":1,"byteOffset":74304,"componentType":5126,"count":2592,"type":"VEC3","name":"accessorNormals"},{"bufferView":2,"byteOffset":14400,"componentType":5126,"count":2592,"type":"VEC2","name":"accessorUVs"}],"bufferViews":[{"buffer":0,"byteLength":8784,"name":"bufferViewScalar"},{"buffer":0,"byteOffset":8784,"byteLength":105408,"byteStride":12,"name":"bufferViewFloatVec3"},{"buffer":0,"byteOffset":114192,"byteLength":35136,"byteStride":8,"name":"bufferViewFloatVec2"}],"buffers":[{"uri":"light.bin","byteLength":149328}],"materials":[{"pbrMetallicRoughness":{"baseColorFactor":[0.04,0.04,0.04,1.0],"metallicFactor":0.0,"roughnessFactor":0.329999983},"name":"light_metal","extras":{"babylonUseFactors":false,"babylonDirectIntensity":1.0,"babylonEmissiveIntensity":1.0,"babylonEnvironmentIntensity":1.0,"babylonSpecularIntensity":1.0,"alphaMode":"Auto","twoSided":false,"depthWrite":true,"depthTest":true,"dithering":false,"gltfCompat":false}},{"pbrMetallicRoughness":{"baseColorFactor":[0.894117653,0.7294118,0.5899281,1.0],"metallicFactor":0.0,"roughnessFactor":0.669999957},"emissiveFactor":[0.390196085,0.3368599,0.336859971],"name":"light_lamp","extras":{"babylonUseFactors":false,"babylonDirectIntensity":1.0,"babylonEmissiveIntensity":1.0,"babylonEnvironmentIntensity":1.0,"babylonSpecularIntensity":1.0,"alphaMode":"Auto","twoSided":false,"depthWrite":true,"depthTest":true,"dithering":false,"gltfCompat":false}}]}