{"asset":{"version":"2.0","generator":"babylon.js glTF exporter for 3dsmax 2020 v20210308.2"},"scene":0,"scenes":[{"nodes":[0,1,2,3]}],"nodes":[{"translation":[-0.4589523,1.16555572,0.0],"name":"CoronaCamera001.Target"},{"translation":[0.134807959,1.00000007E-05,-6.11841059],"name":"CoronaSun001.Target"},{"mesh":0,"translation":[-0.599999964,0.08999999,0.0259999968],"name":"sofa_chrome","extras":{"renderOrder":0,"frustumCulling":true,"animAuto":true,"animLoop":"Repeat","animRepeatInfinite":true,"animRepeatCount":1.0,"animOffset":0.0,"animUseCustomRange":false,"animCustomRangeFrom":0,"animCustomRangeTo":100}},{"mesh":1,"translation":[-0.6,0.228355914,-0.139885873],"name":"sofa_Leather","extras":{"animAuto":true,"animLoop":"Repeat","animRepeatInfinite":true,"animRepeatCount":1.0,"animOffset":0.0,"animUseCustomRange":false,"animCustomRangeFrom":0,"animCustomRangeTo":100,"renderOrder":0,"frustumCulling":true}}],"meshes":[{"primitives":[{"attributes":{"POSITION":1,"NORMAL":2,"TEXCOORD_0":3},"indices":0,"material":0}],"name":"sofa_chrome"},{"primitives":[{"attributes":{"POSITION":5,"NORMAL":6,"TEXCOORD_0":7},"indices":4,"material":1}],"name":"sofa_Leather"}],"accessors":[{"bufferView":0,"componentType":5123,"count":5544,"type":"SCALAR","name":"accessorIndices"},{"bufferView":1,"componentType":5126,"count":5544,"max":[1.08291733,0.0513992049,0.3013867],"min":[0.167082578,-0.0899999961,-0.3433992],"type":"VEC3","name":"accessorPositions"},{"bufferView":1,"byteOffset":66528,"componentType":5126,"count":5544,"type":"VEC3","name":"accessorNormals"},{"bufferView":2,"componentType":5126,"count":5544,"type":"VEC2","name":"accessorUVs"},{"bufferView":0,"byteOffset":11088,"componentType":5123,"count":26076,"type":"SCALAR","name":"accessorIndices"},{"bufferView":1,"byteOffset":133056,"componentType":5126,"count":26076,"max":[1.14761817,0.404271334,0.502438],"min":[0.101705588,-0.0881262943,-0.242214978],"type":"VEC3","name":"accessorPositions"},{"bufferView":1,"byteOffset":445968,"componentType":5126,"count":26076,"type":"VEC3","name":"accessorNormals"},{"bufferView":2,"byteOffset":44352,"componentType":5126,"count":26076,"type":"VEC2","name":"accessorUVs"}],"bufferViews":[{"buffer":0,"byteLength":63240,"name":"bufferViewScalar"},{"buffer":0,"byteOffset":63240,"byteLength":758880,"byteStride":12,"name":"bufferViewFloatVec3"},{"buffer":0,"byteOffset":822120,"byteLength":252960,"byteStride":8,"name":"bufferViewFloatVec2"}],"buffers":[{"uri":"sofa.bin","byteLength":1075080}],"materials":[{"pbrMetallicRoughness":{"baseColorFactor":[0.0,0.0,0.0,1.0],"metallicFactor":0.0,"roughnessFactor":0.0},"name":"chair_chrome_Material","extras":{"alphaMode":"Auto","twoSided":false,"depthWrite":true,"depthTest":true,"dithering":false,"gltfCompat":false,"babylonUseFactors":false,"babylonDirectIntensity":1.0,"babylonEmissiveIntensity":1.0,"babylonEnvironmentIntensity":1.0,"babylonSpecularIntensity":1.0}},{"pbrMetallicRoughness":{"baseColorTexture":{"index":1},"metallicFactor":0.0,"roughnessFactor":0.649519},"normalTexture":{"index":0,"scale":0.1},"name":"chair_leather_Material","extras":{"alphaMode":"Auto","twoSided":false,"depthWrite":true,"depthTest":true,"dithering":false,"gltfCompat":false,"babylonUseFactors":false,"babylonDirectIntensity":1.0,"babylonEmissiveIntensity":1.0,"babylonEnvironmentIntensity":1.0,"babylonSpecularIntensity":1.0}}],"textures":[{"sampler":0,"source":0,"name":"cgaxis_models_38_32_01_N.jpg"},{"sampler":0,"source":1,"name":"cgaxis_models_38_32_01_bump.jpg"}],"images":[{"uri":"./cgaxis_models_38_32_01_N.jpg"},{"uri":"./cgaxis_models_38_32_01_bump.jpg"}],"samplers":[{"magFilter":9729,"minFilter":9987}]}