{"asset":{"version":"2.0","generator":"babylon.js glTF exporter for 3dsmax 2020 v20210308.2"},"scene":0,"scenes":[{"nodes":[0,1,2,3,4]}],"nodes":[{"translation":[-0.4589523,1.16555572,0.0],"name":"CoronaCamera001.Target"},{"translation":[0.134807959,1.00000007E-05,-6.11841059],"name":"CoronaSun001.Target"},{"mesh":0,"name":"table_glass","extras":{"renderOrder":0,"frustumCulling":true,"animAuto":true,"animLoop":"Repeat","animRepeatInfinite":true,"animRepeatCount":1.0,"animOffset":0.0,"animUseCustomRange":false,"animCustomRangeFrom":0,"animCustomRangeTo":100}},{"mesh":1,"name":"table_metal","extras":{"renderOrder":0,"frustumCulling":true,"animAuto":true,"animLoop":"Repeat","animRepeatInfinite":true,"animRepeatCount":1.0,"animOffset":0.0,"animUseCustomRange":false,"animCustomRangeFrom":0,"animCustomRangeTo":100}},{"mesh":2,"name":"table_legs","extras":{"renderOrder":0,"frustumCulling":true,"animAuto":true,"animLoop":"Repeat","animRepeatInfinite":true,"animRepeatCount":1.0,"animOffset":0.0,"animUseCustomRange":false,"animCustomRangeFrom":0,"animCustomRangeTo":100}}],"meshes":[{"primitives":[{"attributes":{"POSITION":1,"NORMAL":2,"TEXCOORD_0":3},"indices":0,"material":0}],"name":"table_glass"},{"primitives":[{"attributes":{"POSITION":5,"NORMAL":6,"TEXCOORD_0":7},"indices":4,"material":1}],"name":"table_metal"},{"primitives":[{"attributes":{"POSITION":9,"NORMAL":10,"TEXCOORD_0":11},"indices":8,"material":2}],"name":"table_legs"}],"accessors":[{"bufferView":0,"componentType":5123,"count":132,"type":"SCALAR","name":"accessorIndices"},{"bufferView":1,"componentType":5126,"count":132,"max":[0.5,0.41989997,0.25],"min":[-0.5,0.40989998,-0.24999997],"type":"VEC3","name":"accessorPositions"},{"bufferView":1,"byteOffset":1584,"componentType":5126,"count":132,"type":"VEC3","name":"accessorNormals"},{"bufferView":2,"componentType":5126,"count":132,"type":"VEC2","name":"accessorUVs"},{"bufferView":0,"byteOffset":264,"componentType":5123,"count":2688,"type":"SCALAR","name":"accessorIndices"},{"bufferView":1,"byteOffset":3168,"componentType":5126,"count":2688,"max":[0.45,0.409999967,0.19],"min":[-0.45,0.399999946,-0.189999983],"type":"VEC3","name":"accessorPositions"},{"bufferView":1,"byteOffset":35424,"componentType":5126,"count":2688,"type":"VEC3","name":"accessorNormals"},{"bufferView":2,"byteOffset":1056,"componentType":5126,"count":2688,"type":"VEC2","name":"accessorUVs"},{"bufferView":0,"byteOffset":5640,"componentType":5123,"count":1512,"type":"SCALAR","name":"accessorIndices"},{"bufferView":1,"byteOffset":67680,"componentType":5126,"count":1512,"max":[0.5000001,0.399999827,0.25],"min":[-0.5,-1.90734852E-07,-0.25],"type":"VEC3","name":"accessorPositions"},{"bufferView":1,"byteOffset":85824,"componentType":5126,"count":1512,"type":"VEC3","name":"accessorNormals"},{"bufferView":2,"byteOffset":22560,"componentType":5126,"count":1512,"type":"VEC2","name":"accessorUVs"}],"bufferViews":[{"buffer":0,"byteLength":8664,"name":"bufferViewScalar"},{"buffer":0,"byteOffset":8664,"byteLength":103968,"byteStride":12,"name":"bufferViewFloatVec3"},{"buffer":0,"byteOffset":112632,"byteLength":34656,"byteStride":8,"name":"bufferViewFloatVec2"}],"buffers":[{"uri":"table.bin","byteLength":147288}],"materials":[{"pbrMetallicRoughness":{"baseColorFactor":[0.0,0.0,0.0,1.0],"metallicFactor":0.0,"roughnessFactor":0.0316227674},"name":"table_glass","extras":{"alphaMode":"Auto","twoSided":false,"depthWrite":true,"depthTest":true,"dithering":false,"gltfCompat":false,"babylonUseFactors":false,"babylonDirectIntensity":1.0,"babylonEmissiveIntensity":1.0,"babylonEnvironmentIntensity":1.0,"babylonSpecularIntensity":1.0}},{"pbrMetallicRoughness":{"baseColorFactor":[0.0509803966,0.0509803966,0.0509803966,1.0],"metallicFactor":0.0,"roughnessFactor":0.311987162},"name":"table_metal","extras":{"alphaMode":"Auto","twoSided":false,"depthWrite":true,"depthTest":true,"dithering":false,"gltfCompat":false,"babylonUseFactors":false,"babylonDirectIntensity":1.0,"babylonEmissiveIntensity":1.0,"babylonEnvironmentIntensity":1.0,"babylonSpecularIntensity":1.0}},{"pbrMetallicRoughness":{"baseColorFactor":[0.011764707,0.011764707,0.011764707,1.0],"metallicFactor":0.0,"roughnessFactor":0.101085663},"name":"table_black_metal","extras":{"alphaMode":"Auto","twoSided":false,"depthWrite":true,"depthTest":true,"dithering":false,"gltfCompat":false,"babylonUseFactors":false,"babylonDirectIntensity":1.0,"babylonEmissiveIntensity":1.0,"babylonEnvironmentIntensity":1.0,"babylonSpecularIntensity":1.0}}]}